<svg id="Layer_1" data-name="Layer 1" xmlns="http://www.w3.org/2000/svg" xmlns:xlink="http://www.w3.org/1999/xlink" viewBox="0 0 334.73 98.69"><defs><style>.cls-1{fill:#fff;}.cls-2{fill:url(#linear-gradient);}.cls-3{fill:url(#linear-gradient-2);}.cls-4{fill:url(#linear-gradient-3);}.cls-5{fill:url(#linear-gradient-4);}.cls-6{fill:url(#linear-gradient-5);}.cls-7{fill:url(#linear-gradient-6);}.cls-8{fill:url(#linear-gradient-7);}.cls-9{fill:url(#linear-gradient-8);}.cls-10{fill:url(#linear-gradient-9);}.cls-11{fill:url(#linear-gradient-10);}.cls-12{fill:url(#linear-gradient-11);}</style><linearGradient id="linear-gradient" x1="17.68" y1="49.74" x2="77.78" y2="49.74" gradientUnits="userSpaceOnUse"><stop offset="0" stop-color="#c82890"/><stop offset="0.51" stop-color="#e92256"/><stop offset="1" stop-color="#ef4823"/></linearGradient><linearGradient id="linear-gradient-2" x1="27.14" y1="30.45" x2="40.56" y2="30.45" xlink:href="#linear-gradient"/><linearGradient id="linear-gradient-3" x1="54.9" y1="30.45" x2="68.32" y2="30.45" xlink:href="#linear-gradient"/><linearGradient id="linear-gradient-4" x1="62.12" y1="46.65" x2="83.7" y2="46.65" xlink:href="#linear-gradient"/><linearGradient id="linear-gradient-5" x1="62.42" y1="46.65" x2="83.4" y2="46.65" xlink:href="#linear-gradient"/><linearGradient id="linear-gradient-6" x1="63.2" y1="50.37" x2="84.97" y2="50.37" xlink:href="#linear-gradient"/><linearGradient id="linear-gradient-7" x1="63.5" y1="50.37" x2="84.67" y2="50.37" xlink:href="#linear-gradient"/><linearGradient id="linear-gradient-8" x1="11.4" y1="46.65" x2="32.98" y2="46.65" xlink:href="#linear-gradient"/><linearGradient id="linear-gradient-9" x1="11.7" y1="46.65" x2="32.68" y2="46.65" xlink:href="#linear-gradient"/><linearGradient id="linear-gradient-10" x1="10.13" y1="50.37" x2="31.91" y2="50.37" xlink:href="#linear-gradient"/><linearGradient id="linear-gradient-11" x1="10.43" y1="50.37" x2="31.61" y2="50.37" xlink:href="#linear-gradient"/></defs><title>Goalify logo finalWorking file</title><path class="cls-1" d="M98.06,46.49c0-8.66,6.62-14.1,14.75-14.1A12.71,12.71,0,0,1,124.46,39l-5.88,3.06a6.76,6.76,0,0,0-5.76-3.47,7.53,7.53,0,0,0-7.6,7.89,7.53,7.53,0,0,0,7.6,7.89,8.64,8.64,0,0,0,5-1.63V50.61h-6.13V44.44h13.16V55.27a15.74,15.74,0,0,1-12.05,5.31C104.68,60.58,98.06,55.15,98.06,46.49Z"/><path class="cls-1" d="M127.52,50.21c0-5.56,4-10.34,10.75-10.34s10.79,4.78,10.79,10.34-4,10.38-10.79,10.38S127.52,55.76,127.52,50.21Zm15.08,0c0-2.62-1.55-4.78-4.33-4.78S134,47.59,134,50.21,135.53,55,138.27,55,142.6,52.86,142.6,50.21Z"/><path class="cls-1" d="M164,60.09v-2a8.15,8.15,0,0,1-6.13,2.45c-3,0-6.78-2-6.78-6.5,0-4.78,3.76-6.33,6.78-6.33,2.62,0,4.94.82,6.13,2.29V47.67c0-1.72-1.47-2.86-4-2.86a8.81,8.81,0,0,0-5.6,2.08l-2.25-4a13.92,13.92,0,0,1,8.95-3.07c4.74,0,9.19,1.76,9.19,7.89V60.09ZM164,55V53.27a4.49,4.49,0,0,0-3.51-1.39c-1.67,0-3.15.74-3.15,2.29s1.47,2.29,3.15,2.29A4.38,4.38,0,0,0,164,55Z"/><path class="cls-1" d="M174.88,60.09V32.84h6.29V60.09Z"/><path class="cls-1" d="M185.3,35a3.6,3.6,0,1,1,3.6,3.64A3.58,3.58,0,0,1,185.3,35Zm.45,25.13V40.36H192V60.09Z"/><path class="cls-1" d="M198,60.09V45.83H194.7V40.36H198v-1A6.68,6.68,0,0,1,205,32.43a8,8,0,0,1,5.68,2L208.39,38a2.41,2.41,0,0,0-2-.78,2.06,2.06,0,0,0-2.17,2.17v1h4v5.48h-4V60.09Z"/><path class="cls-1" d="M211.37,62.18a3.47,3.47,0,0,0,1.55.37c1.43,0,2.33-.29,2.66-1.1l.45-1.06-7.85-20h6.62l4.45,12.5,4.5-12.5h6.66l-8.91,22.56c-1.59,4.17-4.58,5.11-8.34,5.19a12.78,12.78,0,0,1-2.7-.33Z"/><path class="cls-1" d="M241.53,46.49c0-8.42,6.38-14.1,14.75-14.1a12.58,12.58,0,0,1,11.89,7.31l-6,2.86a6.54,6.54,0,0,0-5.84-4,7.53,7.53,0,0,0-7.6,7.89,7.53,7.53,0,0,0,7.6,7.89,6.54,6.54,0,0,0,5.84-4l6,2.86a12.66,12.66,0,0,1-11.89,7.31C247.9,60.58,241.53,54.86,241.53,46.49Z"/><path class="cls-1" d="M284.43,60.09V48.61c0-2.41-1.27-3.19-3.27-3.19a4.85,4.85,0,0,0-3.8,1.92V60.09h-6.29V32.84h6.29v9.93a8.92,8.92,0,0,1,6.82-2.9c4.5,0,6.54,2.53,6.54,6.17V60.09Z"/><path class="cls-1" d="M306.95,60.09v-2a8.15,8.15,0,0,1-6.13,2.45c-3,0-6.78-2-6.78-6.5,0-4.78,3.76-6.33,6.78-6.33,2.62,0,4.94.82,6.13,2.29V47.67c0-1.72-1.47-2.86-4-2.86a8.81,8.81,0,0,0-5.6,2.08l-2.25-4A13.92,13.92,0,0,1,304,39.87c4.74,0,9.19,1.76,9.19,7.89V60.09Zm0-5.07V53.27a4.49,4.49,0,0,0-3.51-1.39c-1.67,0-3.15.74-3.15,2.29s1.47,2.29,3.15,2.29A4.38,4.38,0,0,0,306.95,55Z"/><path class="cls-1" d="M319.12,54.78V45.83h-3.27V40.36h3.27V35h6.25v5.39h4v5.48h-4V53a1.79,1.79,0,0,0,1.76,2,2.45,2.45,0,0,0,1.59-.49L330,59.28c-.78.74-2.33,1.31-4.66,1.31C321.29,60.58,319.12,58.58,319.12,54.78Z"/><path class="cls-2" d="M77.47,37V35.42a2.05,2.05,0,0,0-.23-.93,15.76,15.76,0,0,0-.39-9.38c-.26-1-.51-1.88-.64-2.29.3-7.46.15-13.93.15-14a2.09,2.09,0,0,0-2.49-2,25.88,25.88,0,0,0-12.19,5.93,29.87,29.87,0,0,0-28.07.09,25.78,25.78,0,0,0-12.3-6,2.09,2.09,0,0,0-2.49,2c0,.06-.13,6.76.16,14.28a20.78,20.78,0,0,0-1.07,4.79,15.27,15.27,0,0,0,.28,6.45,2.05,2.05,0,0,0-.3,1.05c0,.55,0,1.09,0,1.63s0,1.19,0,1.77v.34a29.79,29.79,0,0,0,1,7.51c7.43,41.52,55.73,45.76,56.26,45.8l2.38.19V41.52c.06-.78.1-1.56.1-2.35S77.54,37.68,77.47,37Z"/><path class="cls-1" d="M23,11.57a21.3,21.3,0,0,1,6.53,3.33A16.13,16.13,0,0,0,23,18.48C23,15.7,23,13.25,23,11.57Z"/><path class="cls-1" d="M72.17,18.23a16.12,16.12,0,0,0-6.41-3.39,21.41,21.41,0,0,1,6.46-3.27C72.23,13.17,72.22,15.53,72.17,18.23Z"/><path class="cls-1" d="M47.73,69a29.72,29.72,0,0,0,9.16-1.45c.37,4.68,3,13.41,16.18,18.87v1.49c-7.07-1.07-30.62-6-43-24.72A29.68,29.68,0,0,0,47.73,69Z"/><path class="cls-1" d="M61.63,65.57A30.06,30.06,0,0,0,73.07,54.91V81.53C61.37,75.86,61.43,67.56,61.63,65.57Z"/><path class="cls-1" d="M47.73,64.84A25.71,25.71,0,0,1,23.63,48a53,53,0,0,1-1-5.94,16.09,16.09,0,0,0,20.45,1.62l3,5.19a1.92,1.92,0,0,0,3.33,0l3-5.17a16.11,16.11,0,0,0,20.68-1.88v1.42A25.71,25.71,0,0,1,47.73,64.84Z"/><path class="cls-1" d="M50.37,40.95l-2.61,4.52L45.12,40.9a24.59,24.59,0,0,0,2.6-3.59A24.6,24.6,0,0,0,50.37,40.95Z"/><path class="cls-1" d="M61.61,42A11.59,11.59,0,1,1,73.2,30.45,11.61,11.61,0,0,1,61.61,42Z"/><path class="cls-1" d="M33.85,18.86A11.59,11.59,0,1,1,22.26,30.45,11.61,11.61,0,0,1,33.85,18.86Z"/><path class="cls-1" d="M47.73,22.2a16.23,16.23,0,0,0-8.87-7.12,25.59,25.59,0,0,1,17.75,0A16.23,16.23,0,0,0,47.73,22.2Z"/><path class="cls-3" d="M33.85,37.15a6.71,6.71,0,0,0,0-13.41,6.63,6.63,0,0,0-3.08.75l-1.67.87,1.65.9a1,1,0,1,1-1.36,1.49L28.34,26.2l-.7,1.74a6.7,6.7,0,0,0,6.22,9.22Z"/><path class="cls-4" d="M67.12,26.2l-1.05,1.56a1,1,0,1,1-1.36-1.49l1.65-.9-1.67-.86a6.63,6.63,0,0,0-3.08-.75,6.71,6.71,0,1,0,6.22,4.2Z"/><g id="_Group_" data-name="&lt;Group&gt;"><path class="cls-5" d="M63.34,49.64a1.22,1.22,0,0,1-.7-2.22c.22-.15,5.51-3.76,14.35-3.76a34.62,34.62,0,0,1,5.68.48,1.22,1.22,0,0,1-.2,2.42l-.2,0a31.83,31.83,0,0,0-5.22-.44c-8.13,0-13,3.28-13,3.31A1.22,1.22,0,0,1,63.34,49.64Z"/><path id="_Path_" data-name="&lt;Path&gt;" class="cls-6" d="M63.34,49.34a.92.92,0,0,1-.52-1.68c.31-.21,7.73-5.24,19.81-3.23a.92.92,0,0,1-.3,1.81C71,44.36,63.94,49.13,63.87,49.18A.92.92,0,0,1,63.34,49.34Z"/><path class="cls-7" d="M83.75,52.82a1.21,1.21,0,0,1-.47-.09A29.86,29.86,0,0,0,71.8,50.36c-.62,0-1.19,0-1.71.06a19.45,19.45,0,0,0-5.23,1,1.22,1.22,0,0,1-.9-2.27,23,23,0,0,1,7.86-1.22,32.23,32.23,0,0,1,12.39,2.57,1.22,1.22,0,0,1-.47,2.35Z"/><path id="_Path_2" data-name="&lt;Path&gt;" class="cls-8" d="M83.75,52.52a.91.91,0,0,1-.35-.07,29.69,29.69,0,0,0-13.33-2.33,19.66,19.66,0,0,0-5.32,1,.92.92,0,0,1-.68-1.71c.35-.14,8.72-3.36,20,1.34a.92.92,0,0,1-.35,1.77Z"/></g><g id="_Group_2" data-name="&lt;Group&gt;"><path class="cls-9" d="M31.76,49.64a1.21,1.21,0,0,1-.69-.22,25,25,0,0,0-13-3.31,31.65,31.65,0,0,0-5.19.44l-.2,0a1.22,1.22,0,0,1-.2-2.42,34.64,34.64,0,0,1,5.68-.48c8.84,0,14.13,3.6,14.35,3.76a1.22,1.22,0,0,1-.7,2.22Z"/><path id="_Path_3" data-name="&lt;Path&gt;" class="cls-10" d="M31.76,49.34a.92.92,0,0,1-.52-.16h0c-.07,0-7.16-4.81-18.46-2.92a.92.92,0,0,1-.3-1.81c12.08-2,19.5,3,19.81,3.23a.92.92,0,0,1-.52,1.68Z"/><path class="cls-11" d="M11.35,52.82a1.22,1.22,0,0,1-.47-2.35,32.24,32.24,0,0,1,12.39-2.57,22.93,22.93,0,0,1,7.86,1.22,1.22,1.22,0,1,1-.9,2.27,21.44,21.44,0,0,0-7-1,29.73,29.73,0,0,0-11.43,2.36A1.21,1.21,0,0,1,11.35,52.82Z"/><path id="_Path_4" data-name="&lt;Path&gt;" class="cls-12" d="M11.35,52.52A.92.92,0,0,1,11,50.75c11.31-4.7,19.68-1.48,20-1.34a.92.92,0,0,1-.68,1.71c-.11,0-8.08-3.05-18.64,1.33A.91.91,0,0,1,11.35,52.52Z"/></g></svg>